<svg width="118" height="48" viewBox="0 0 118 48" fill="none" xmlns="http://www.w3.org/2000/svg">
<g clip-path="url(#clip0_853_758)">
<path d="M97.7687 44.8167C95.8687 42.6965 94.9187 39.2756 94.9187 34.56V29.9507H104.181V35.8171C104.181 38.1561 104.931 39.3256 106.431 39.3256C107.269 39.3256 107.856 39.0817 108.187 38.5876C108.519 38.0936 108.681 37.2618 108.681 36.0922C108.681 34.5537 108.5 33.2842 108.131 32.2773C107.769 31.2704 107.3 30.4323 106.731 29.7569C106.162 29.0814 105.15 28.0307 103.687 26.6048L99.6312 22.5459C96.4875 19.4752 94.9187 16.073 94.9187 12.3455C94.9187 8.32417 95.8437 5.25967 97.6875 3.1583C99.5312 1.05694 102.225 0.00625229 105.775 0.00625229C110.012 0.00625229 113.069 1.13199 114.931 3.3772C116.794 5.62866 116.919 9.2998 116.919 14.0904H108.037L108.081 10.7007C108.081 10.0816 107.906 9.58749 107.562 9.2185C107.212 8.85576 106.731 8.66814 106.112 8.66814C105.381 8.66814 104.831 8.86827 104.469 9.26853C104.1 9.66879 103.919 10.2192 103.919 10.9134C103.919 12.4519 104.794 14.0404 106.55 15.6852L112.031 20.9511C113.312 22.1957 114.369 23.3715 115.212 24.4909C116.05 25.6042 116.731 26.9238 117.237 28.4435C117.75 29.9633 118.006 31.7644 118.006 33.847C118.006 38.4938 117.156 42.0086 115.456 44.4039C113.756 46.7992 110.95 47.9937 107.044 47.9937C102.769 47.9937 99.6812 46.9305 97.7812 44.8104L97.7687 44.8167Z" fill="#1A1A1A"/>
<path d="M63.3062 47.556V0.437782H72.4062V47.556H63.3062Z" fill="#1A1A1A"/>
<path d="M79.2562 47.556V9.48742H73.6625V0.437782H94.275V9.48742H88.6812V47.556H79.25H79.2562Z" fill="#1A1A1A"/>
<path d="M52.5562 0.437782L52.0062 8.0615L51.2937 15.5789L49.5437 40.6202H49.1L47.0187 15.5789L46.3062 8.0615L45.65 0.437782H36.7125L41.2062 47.556H57.1625L61.7125 0.437782H52.5562Z" fill="#1A1A1A"/>
<path d="M25.35 0L24.3062 3.89003H30.6375L31.6812 0H25.35Z" fill="#1A1A1A"/>
<path d="M12.1625 18.9686H18.4625L23.5562 0H17.25L15.4312 6.71062H9.575L11.3937 0H5.0875L0 18.9686H6.3L8.11875 12.1454H13.9812L12.1625 18.9686Z" fill="#1A1A1A"/>
<path d="M26.4812 18.9686L30.2125 4.997H24.1L20.3687 18.9686H26.4812Z" fill="#1A1A1A"/>
</g>
<defs>
<clipPath id="clip0_853_758">
<rect width="118" height="48" fill="white"/>
</clipPath>
</defs>
</svg>
